<svg width="48" height="48" viewBox="0 0 48 48" fill="none" xmlns="http://www.w3.org/2000/svg">
  <rect width="48" height="48" rx="12" fill="#3B5BDB"/>
  <path d="M10 34V16C10 14.9 10.9 14 12 14H24V36H12C10.9 36 10 35.1 10 34Z" fill="#4DABF7"/>
  <path d="M38 34C38 35.1 37.1 36 36 36H24V14H36C37.1 14 38 14.9 38 16V34Z" fill="#74C0FC"/>
  <rect x="22" y="12" width="4" height="24" fill="white" rx="2"/>
  <path d="M18 10L24 13L30 10V8C30 7.4 29.6 7 29 7H19C18.4 7 18 7.4 18 8V10Z" fill="#FFD43B"/>
  <circle cx="24" cy="8" r="2" fill="#FFA94D"/>
</svg>
